<mxfile host="app.diagrams.net" agent="Mozilla/5.0 (Windows NT 10.0; Win64; x64) AppleWebKit/537.36 (KHTML, like Gecko) Chrome/136.0.0.0 Safari/537.36 Edg/136.0.0.0" version="26.2.15">
  <diagram name="第 1 页" id="VOg0WG0OURcyFoTnkn8K">
    <mxGraphModel dx="1101" dy="2236" grid="1" gridSize="10" guides="1" tooltips="1" connect="1" arrows="1" fold="1" page="1" pageScale="1" pageWidth="827" pageHeight="1169" math="0" shadow="0">
      <root>
        <mxCell id="0" />
        <mxCell id="1" parent="0" />
        <mxCell id="52NmFlTEE-syT0yV7xov-103" value="数据库" style="whiteSpace=wrap;strokeWidth=2;verticalAlign=top;fontSize=18;" vertex="1" parent="1">
          <mxGeometry x="1620" y="690" width="463" height="110" as="geometry" />
        </mxCell>
        <mxCell id="52NmFlTEE-syT0yV7xov-104" value="后端服务" style="whiteSpace=wrap;strokeWidth=2;verticalAlign=top;fontSize=18;" vertex="1" parent="1">
          <mxGeometry x="1230" y="90" width="1090" height="570" as="geometry" />
        </mxCell>
        <mxCell id="52NmFlTEE-syT0yV7xov-105" value="前端界面" style="whiteSpace=wrap;strokeWidth=2;verticalAlign=top;fontSize=18;" vertex="1" parent="1">
          <mxGeometry x="1230" y="-80" width="1090" height="130" as="geometry" />
        </mxCell>
        <mxCell id="52NmFlTEE-syT0yV7xov-131" style="edgeStyle=orthogonalEdgeStyle;rounded=0;orthogonalLoop=1;jettySize=auto;html=1;exitX=0.5;exitY=1;exitDx=0;exitDy=0;fontSize=18;" edge="1" parent="1" source="52NmFlTEE-syT0yV7xov-106" target="52NmFlTEE-syT0yV7xov-109">
          <mxGeometry relative="1" as="geometry" />
        </mxCell>
        <mxCell id="52NmFlTEE-syT0yV7xov-106" value="接收用户输入 (用户名/密码)" style="rounded=1;arcSize=20;strokeWidth=2;fontSize=18;" vertex="1" parent="1">
          <mxGeometry x="1251.5" y="-54" width="230" height="78" as="geometry" />
        </mxCell>
        <mxCell id="52NmFlTEE-syT0yV7xov-107" value="反馈登录成功并跳转主页" style="rounded=1;arcSize=20;strokeWidth=2;fontSize=18;" vertex="1" parent="1">
          <mxGeometry x="1654" y="-54" width="230" height="78" as="geometry" />
        </mxCell>
        <mxCell id="52NmFlTEE-syT0yV7xov-108" value="反馈登录失败信息" style="rounded=1;arcSize=20;strokeWidth=2;fontSize=18;" vertex="1" parent="1">
          <mxGeometry x="1993.25" y="-54" width="230" height="78" as="geometry" />
        </mxCell>
        <mxCell id="52NmFlTEE-syT0yV7xov-109" value="处理登录请求 (/login)" style="whiteSpace=wrap;strokeWidth=2;fontSize=18;" vertex="1" parent="1">
          <mxGeometry x="1257" y="565.5" width="216" height="54" as="geometry" />
        </mxCell>
        <mxCell id="52NmFlTEE-syT0yV7xov-132" style="edgeStyle=orthogonalEdgeStyle;rounded=0;orthogonalLoop=1;jettySize=auto;html=1;exitX=1;exitY=0.5;exitDx=0;exitDy=0;fontSize=18;" edge="1" parent="1" source="52NmFlTEE-syT0yV7xov-110" target="52NmFlTEE-syT0yV7xov-116">
          <mxGeometry relative="1" as="geometry" />
        </mxCell>
        <mxCell id="52NmFlTEE-syT0yV7xov-110" value="根据用户名查询用户" style="whiteSpace=wrap;strokeWidth=2;fontSize=18;" vertex="1" parent="1">
          <mxGeometry x="1509" y="565.5" width="204" height="54" as="geometry" />
        </mxCell>
        <mxCell id="52NmFlTEE-syT0yV7xov-136" style="edgeStyle=orthogonalEdgeStyle;rounded=0;orthogonalLoop=1;jettySize=auto;html=1;exitX=0.5;exitY=0;exitDx=0;exitDy=0;fontSize=18;" edge="1" parent="1" source="52NmFlTEE-syT0yV7xov-111" target="52NmFlTEE-syT0yV7xov-112">
          <mxGeometry relative="1" as="geometry" />
        </mxCell>
        <mxCell id="52NmFlTEE-syT0yV7xov-111" value="校验密码哈希值" style="whiteSpace=wrap;strokeWidth=2;fontSize=18;" vertex="1" parent="1">
          <mxGeometry x="1855.5" y="571.25" width="172" height="54" as="geometry" />
        </mxCell>
        <mxCell id="52NmFlTEE-syT0yV7xov-140" style="edgeStyle=orthogonalEdgeStyle;rounded=0;orthogonalLoop=1;jettySize=auto;html=1;exitX=0;exitY=0;exitDx=0;exitDy=0;entryX=0.5;entryY=1;entryDx=0;entryDy=0;curved=1;fontSize=18;" edge="1" parent="1" source="52NmFlTEE-syT0yV7xov-112" target="52NmFlTEE-syT0yV7xov-113">
          <mxGeometry relative="1" as="geometry">
            <Array as="points">
              <mxPoint x="1770" y="403.75" />
            </Array>
          </mxGeometry>
        </mxCell>
        <mxCell id="52NmFlTEE-syT0yV7xov-146" value="成功" style="edgeLabel;html=1;align=center;verticalAlign=middle;resizable=0;points=[];fontSize=18;" vertex="1" connectable="0" parent="52NmFlTEE-syT0yV7xov-140">
          <mxGeometry x="0.4632" y="-19" relative="1" as="geometry">
            <mxPoint as="offset" />
          </mxGeometry>
        </mxCell>
        <mxCell id="52NmFlTEE-syT0yV7xov-141" style="edgeStyle=orthogonalEdgeStyle;rounded=0;orthogonalLoop=1;jettySize=auto;html=1;exitX=1;exitY=0;exitDx=0;exitDy=0;entryX=0.5;entryY=1;entryDx=0;entryDy=0;curved=1;fontSize=18;" edge="1" parent="1" source="52NmFlTEE-syT0yV7xov-112" target="52NmFlTEE-syT0yV7xov-114">
          <mxGeometry relative="1" as="geometry">
            <Array as="points">
              <mxPoint x="2108" y="403.75" />
            </Array>
          </mxGeometry>
        </mxCell>
        <mxCell id="52NmFlTEE-syT0yV7xov-147" value="失败" style="edgeLabel;html=1;align=center;verticalAlign=middle;resizable=0;points=[];fontSize=18;" vertex="1" connectable="0" parent="52NmFlTEE-syT0yV7xov-141">
          <mxGeometry x="0.4521" y="18" relative="1" as="geometry">
            <mxPoint as="offset" />
          </mxGeometry>
        </mxCell>
        <mxCell id="52NmFlTEE-syT0yV7xov-112" value="密码是否匹配?" style="rhombus;strokeWidth=2;whiteSpace=wrap;fontSize=18;" vertex="1" parent="1">
          <mxGeometry x="1863.5" y="364.75" width="156" height="156" as="geometry" />
        </mxCell>
        <mxCell id="52NmFlTEE-syT0yV7xov-139" style="edgeStyle=orthogonalEdgeStyle;rounded=0;orthogonalLoop=1;jettySize=auto;html=1;exitX=0.5;exitY=0;exitDx=0;exitDy=0;entryX=0.5;entryY=1;entryDx=0;entryDy=0;fontSize=18;" edge="1" parent="1" source="52NmFlTEE-syT0yV7xov-113" target="52NmFlTEE-syT0yV7xov-115">
          <mxGeometry relative="1" as="geometry" />
        </mxCell>
        <mxCell id="52NmFlTEE-syT0yV7xov-113" value="创建用户会话 (Session)" style="whiteSpace=wrap;strokeWidth=2;fontSize=18;" vertex="1" parent="1">
          <mxGeometry x="1658" y="254.75" width="224" height="54" as="geometry" />
        </mxCell>
        <mxCell id="52NmFlTEE-syT0yV7xov-143" style="edgeStyle=orthogonalEdgeStyle;rounded=0;orthogonalLoop=1;jettySize=auto;html=1;exitX=0.5;exitY=0;exitDx=0;exitDy=0;entryX=0.5;entryY=1;entryDx=0;entryDy=0;fontSize=18;" edge="1" parent="1" source="52NmFlTEE-syT0yV7xov-114" target="52NmFlTEE-syT0yV7xov-108">
          <mxGeometry relative="1" as="geometry" />
        </mxCell>
        <mxCell id="52NmFlTEE-syT0yV7xov-114" value="生成登录失败响应" style="whiteSpace=wrap;strokeWidth=2;fontSize=18;" vertex="1" parent="1">
          <mxGeometry x="2014.25" y="254.75" width="188" height="54" as="geometry" />
        </mxCell>
        <mxCell id="52NmFlTEE-syT0yV7xov-142" style="edgeStyle=orthogonalEdgeStyle;rounded=0;orthogonalLoop=1;jettySize=auto;html=1;exitX=0.5;exitY=0;exitDx=0;exitDy=0;entryX=0.5;entryY=1;entryDx=0;entryDy=0;fontSize=18;" edge="1" parent="1" source="52NmFlTEE-syT0yV7xov-115" target="52NmFlTEE-syT0yV7xov-107">
          <mxGeometry relative="1" as="geometry" />
        </mxCell>
        <mxCell id="52NmFlTEE-syT0yV7xov-115" value="生成登录成功响应 (含 Session Cookie)" style="whiteSpace=wrap;strokeWidth=2;fontSize=18;" vertex="1" parent="1">
          <mxGeometry x="1640" y="124.75" width="260" height="78" as="geometry" />
        </mxCell>
        <mxCell id="52NmFlTEE-syT0yV7xov-116" value="查询用户表" style="whiteSpace=wrap;strokeWidth=2;fontSize=18;" vertex="1" parent="1">
          <mxGeometry x="1665" y="725" width="140" height="54" as="geometry" />
        </mxCell>
        <mxCell id="52NmFlTEE-syT0yV7xov-134" style="edgeStyle=orthogonalEdgeStyle;rounded=0;orthogonalLoop=1;jettySize=auto;html=1;exitX=0.5;exitY=0;exitDx=0;exitDy=0;entryX=0.5;entryY=1;entryDx=0;entryDy=0;fontSize=18;" edge="1" parent="1" source="52NmFlTEE-syT0yV7xov-117" target="52NmFlTEE-syT0yV7xov-111">
          <mxGeometry relative="1" as="geometry" />
        </mxCell>
        <mxCell id="52NmFlTEE-syT0yV7xov-117" value="返回用户信息 (含密码哈希)" style="rounded=1;arcSize=20;strokeWidth=2;fontSize=18;" vertex="1" parent="1">
          <mxGeometry x="1830" y="725" width="223" height="54" as="geometry" />
        </mxCell>
        <mxCell id="52NmFlTEE-syT0yV7xov-119" value="" style="curved=1;startArrow=none;endArrow=block;exitX=1;exitY=0.51;entryX=0;entryY=0.51;rounded=0;fontSize=18;" edge="1" parent="1" source="52NmFlTEE-syT0yV7xov-109" target="52NmFlTEE-syT0yV7xov-110">
          <mxGeometry relative="1" as="geometry">
            <Array as="points" />
          </mxGeometry>
        </mxCell>
        <mxCell id="52NmFlTEE-syT0yV7xov-121" value="" style="curved=1;startArrow=none;endArrow=block;exitX=1;exitY=0.5;entryX=0;entryY=0.5;rounded=0;fontSize=18;" edge="1" parent="1" source="52NmFlTEE-syT0yV7xov-116" target="52NmFlTEE-syT0yV7xov-117">
          <mxGeometry relative="1" as="geometry">
            <Array as="points" />
          </mxGeometry>
        </mxCell>
      </root>
    </mxGraphModel>
  </diagram>
</mxfile>
